<?xml version="1.0" encoding="utf-8"?>
<!-- Generator: Adobe Illustrator 26.0.1, SVG Export Plug-In . SVG Version: 6.00 Build 0)  -->
<svg version="1.1" id="Слой_1" xmlns="http://www.w3.org/2000/svg" xmlns:xlink="http://www.w3.org/1999/xlink" x="0px" y="0px"
	 viewBox="0 0 335 227" style="enable-background:new 0 0 335 227;" xml:space="preserve">
<style type="text/css">
	.st0{fill:#FFFFFF;}
</style>
<desc>Created with Fabric.js 3.6.2</desc>
<g id="Layer_1" transform="matrix(3.53 0 0 3.53 200 223.13)">
	<path class="st0" d="M-15.7-30.8c-0.1-7.6,6.1-11.3,6.4-11.5c-3.5-5.2-8.9-5.9-10.9-6c-4.6-0.5-9,2.8-11.4,2.8
		c-2.3,0-6-2.7-9.8-2.6c-5,0.1-9.7,3-12.3,7.6c-5.2,9.2-1.3,22.9,3.8,30.4c2.5,3.7,5.5,7.8,9.4,7.6c3.8-0.2,5.2-2.5,9.7-2.5
		s5.8,2.5,9.8,2.4c4-0.1,6.6-3.7,9.1-7.4c2.9-4.3,4-8.4,4.1-8.6C-7.8-18.6-15.6-21.7-15.7-30.8z"/>
</g>
<g id="Layer_1_00000036232868040935699600000012598455261858360230_" transform="matrix(3.53 0 0 3.53 217.15 135.46)">
	<path class="st0" d="M-28-28.4c2.1-2.6,3.5-6.1,3.1-9.6c-3,0.1-6.6,2-8.7,4.6c-1.9,2.3-3.6,5.9-3.2,9.3
		C-33.5-23.9-30.1-25.8-28-28.4z"/>
</g>
<g>
	<path class="st0" d="M320.7,62 M268.6,139c-0.5,0.3-0.8,0.7-1.2,1.1c-1.7,2.3-4.1,4.2-7.3,5.9c-3.5,1.8-5.6,2.8-8.5,2.7
		c-3.5-0.1-6.9-0.4-10.1-2.8c-3.2-2.4-9.4-6.3-12.3-11.1c-1.3-2.4-9.1-14.8-10.4-17.2c-1.3-2.4,5-12.8,7.2-16.3l-3.6,18.7
		c-0.4,0.5-1.3,4-2.5,10.5s-2.9,16-4.9,28.5c-2.2,12.9-3.9,23-5,30.3c-1.2,7.3-1.8,12.1-1.8,14.3c-0.2,2.9-0.8,5.2-1.7,6.8
		c-0.9,1.6-2.3,2.5-4.2,2.7c-0.9,0.1-2.2,0.3-3.9,0.6c-1.7,0.4-3.7,0.8-6.1,1.4c-0.4-0.1-0.8-0.3-1.1-0.5c-0.3-0.2-0.5-0.6-0.5-1
		l0.7-4c0.1-0.5,0.1-1,0-1.6l-0.8-3.4c-0.1-0.6-0.1-1.1,0-1.7c0.5-2.3,1-4.5,1.4-6.7c0-0.2,0.1-0.3,0.1-0.5
		c0.4-5.1,0.8-9.9,1.2-14.4c0.1-1,0.5-2.5,1-4.8c0.6-2.2,0.9-3.9,0.9-5.1c0-0.6-0.1-1.5-0.3-2.7c-0.2-1.2-0.3-2.1-0.3-2.7
		c0.1-4.8,1-11.8,2.6-21.1c1.6-9.2,2.5-16.1,2.6-21c0-0.2,0-0.4,0-0.6c-0.2-1.7-0.4-3.4-0.7-5.1c-0.1-0.4-0.1-0.8,0-1.1
		c0.5-3,1.2-6.7,2.2-11.1c1-4.5,2.1-9.7,3.3-15.7c0.1-0.4,0.1-0.9,0.1-1.3c-0.2-1.5-0.4-3.2-0.7-4.8c0,0.8,0.1,0.2,0.4-1.8
		c0.3-1.8,0.6-4.9,1.1-9.2c0.1-0.6,0.3-1.2,0.6-1.7c0.4-0.7,0.8-1.3,1-1.8c0,0,0,0,0,0c0.5-1.2,0.4-2.5-0.3-3.6
		c-0.2-0.3-0.3-0.5-0.5-0.8c-0.4-0.7-0.5-1.2-0.5-1.6c0.8-5.3,1.7,1.4,2.4-3.3c0.1-1.3,0.8-0.1,2.3-1.8c1.4-1.6,2.9-5.4,5.4-7.3
		c2-1.6-1.7,4.9,0.2,3.8c1.8-1.1,2.9-1.4,1.9,0.1c-10.6,15.7-4.8,1.3-4.7,1.2c2.2-0.7,6.3-7.1,6.7-7.6c0.4-0.5,2-1.1,2.5-1.1
		c1.3,0,4.1-6.9,4.8-5.5c0.7,1.4,9.6-6.7,9.5-3.9c0,1.5-0.4,3.5-1.2,6.1c-0.8,2.6-1.2,4.5-1.2,5.7c0,0.5,0,2.5,0.1,6
		c0.1,3.5-1.1,8.4-1,14.9c0,4.7,0.2,10.1,1.3,15.4c1.1,5.3,2.4,11.1,4.2,16.9c2.5,7.5,4.7,13.6,7.7,17.3c3,3.7,5.5,6.4,9,6.9
		c8.1,1.1,32.9-24.5,37.7-28.2 M326,61.4c0.8-0.4,2.4-0.1,2.8-0.1c1.5,0,1.7,2.9,2.4,5.2c0.7,2.3,1.1,5.7,1,10.2c0,0.2,0,0.3,0,0.5
		c-0.6,4.2-1.1,8.3-1.5,12.3c-0.9,6.5-2.1,13.2-3.7,20.2c-1.6,7-3.7,14.2-6.2,21.7c-1.3,3.8-2.3,7.1-3.2,9.9
		c-0.9,2.8-1.5,5.3-1.9,7.2c-0.2,1.1-0.5,2.5-0.8,4.2c-0.3,1.6-0.6,3.4-1,5.4c-0.1,0.3-0.1,0.6-0.2,0.9c-0.8,2-1.8,4-2.7,6
		c-0.9,1.7-1.6,3.8-2.2,6.2c-0.6,2.4-1.1,5.1-1.6,8.2c0,0.2,0,0.3,0,0.5c0,0.6-0.1,1.3-0.2,2.1c-0.1,0.9-0.2,1.8-0.3,2.7
		c0,0.2,0,0.4-0.1,0.5c-2.1,8.7-4.2,17.2-6.4,25.4c-0.1,0.4-0.3,0.9-0.5,1.4c-0.4,0.9-1,1.6-1.9,2c-0.8,0.4-1.7,0.9-2.6,1.7
		c-1.4,1.1-2.8,2.6-4.4,4.5c0,0.1-0.1,0.1-0.2,0.2c-1.5,1.7-2.8,2.9-3.8,3.7c-1,0.8-1.8,1.2-2.3,1.2c-0.7,0-1.2-0.2-1.6-0.7
		c-0.4-0.4-0.6-1.2-0.6-2.2c0.1-0.7,0.2-1.3,0.4-1.7c1.2-2.9,2.4-7.1,3.4-12.7c1-5.5,2-12.4,2.9-20.5c0.1-1.7,0.9-6.4,2.3-14
		c1.4-7.6,3.5-18.1,6.2-31.6c0.4-2.2,0.9-4.8,1.5-8c0.6-3.1,1.4-6.7,2.3-10.7c0-0.1,0-0.2,0.1-0.3c0.6-2,1.1-3.8,1.5-5.2
		c0.4-1.5,0.6-2.6,0.6-3.3c0-0.9-0.1-1.5-0.4-1.9c-0.3-0.4-0.7-0.6-1.3-0.6c-0.5,0-1.4,0.6-2.8,2c-1.4,1.3-3.1,3.3-5.2,5.9
		c-1.2,1.4-2.4,3-3.7,4.6c-1.3,1.6-2.6,3.2-4,4.7c-2.3,2.4-4.5,4.6-6.5,6.8l-9.2,9.1c-0.2,0.2-0.5,0.4-0.7,0.6"/>
</g>
<g>
	<path d="M67.1,171.3c0-3.2,0.2-5.9,0.6-8.1c0.4-2.2,0.9-3.9,1.4-5.2c-0.2-1-0.4-2-0.7-3c0-1.2,0.2-3.2,0.7-6c0.4-2.8,1.1-6.4,2-11
		c0.8-4.3,1.5-7.7,2.1-10.1c0.6-2.4,1-3.8,1.3-4.3c-0.2-1-0.4-2-0.6-3.2c-0.2-1.1-0.6-2.4-1.1-3.8l-2.9-1.4l-0.7-1
		c0.2-1.6,0.3-3.2,0.5-4.8s0.4-3.3,0.9-4.9c0.2-2.1,0.6-3.9,1.3-5.4s1.3-2.9,2.1-4c0.3-0.3,0.6-0.7,0.9-1.2c0.3-0.5,0.7-1.1,1.3-1.6
		c0.8-2.1,1.6-4.1,2.4-6.2c0.8-2.1,1.6-4.1,2.5-6c1.3-1.9,3.2-3.5,5.7-4.7c2.5-1.2,5.5-2,9-2.3c2.5-0.9,4.6-1.5,6.4-1.9
		c1.8-0.4,3.2-0.6,4.2-0.6c1.2,0,2.2,0.3,2.9,0.9c0.7,0.6,1.1,1.5,1.1,2.7c0,0.5-0.4,2-1.1,4.8c-0.7,2.7-1.8,6.5-3.3,11.3
		c-0.3,1.6-0.7,3.5-1.3,5.7c-0.6,2.2-1.5,4.8-2.5,7.8c-1.3,3.4-2.6,7.1-3.9,11.1c-1.3,4-2.5,8.5-3.5,13.3c-0.4,2.1-0.9,4.1-1.5,6.1
		c-0.5,2-1,4-1.5,6.1c-0.5,2.3-1,4.6-1.4,6.6c-0.4,2.1-0.6,4-0.6,5.6c0,0.6,0.1,1.2,0.2,1.8c0.1,0.6,0.2,1.1,0.2,1.6
		c0.2,0.6,0.2,1.5-0.1,2.5c-0.2,1-0.5,2.3-0.7,3.7c-0.4,1.4-0.7,2.6-0.9,3.7c-0.3,1.1-0.4,2-0.4,2.5c0,2.9,0.1,5.3,0.3,7.1
		c0.2,1.8,0.5,3,0.7,3.6c0.6,1.5,1.2,3.2,1.9,5c0,1-2,2.4-6,4.3c-4,1.9-6.8,2.9-8.6,2.9c-1.1,0-2-0.2-2.8-0.7
		c-0.8-0.5-1.7-1.2-2.6-2.2c-0.6-0.9-1.1-1.7-1.5-2.5c-0.4-0.7-0.5-1.4-0.5-2.1c0-0.3,0.2-0.9,0.5-1.6c0.4-0.7,0.5-1.3,0.5-1.6
		c-0.7-1.7-1.5-3.1-2.4-4.3c-0.2,0.6-0.3,0.5-0.3-0.3C67.1,175.1,67.1,173.6,67.1,171.3z"/>
</g>
</svg>
